<?xml version="1.0" encoding="UTF-8" standalone="no"?>
<svg
   xmlns:dc="http://purl.org/dc/elements/1.1/"
   xmlns:cc="http://creativecommons.org/ns#"
   xmlns:rdf="http://www.w3.org/1999/02/22-rdf-syntax-ns#"
   xmlns:svg="http://www.w3.org/2000/svg"
   xmlns="http://www.w3.org/2000/svg"
   xmlns:sodipodi="http://sodipodi.sourceforge.net/DTD/sodipodi-0.dtd"
   xmlns:inkscape="http://www.inkscape.org/namespaces/inkscape"
   id="Capa_1"
   enable-background="new 0 0 512 512"
   height="500.35172"
   viewBox="0 0 512 500.35172"
   width="512"
   version="1.1"
   sodipodi:docname="certified.svg"
   inkscape:version="0.92.5 (2060ec1f9f, 2020-04-08)">
  <metadata
     id="metadata15">
    <rdf:RDF>
      <cc:Work
         rdf:about="">
        <dc:format>image/svg+xml</dc:format>
        <dc:type
           rdf:resource="http://purl.org/dc/dcmitype/StillImage" />
        <dc:title></dc:title>
      </cc:Work>
    </rdf:RDF>
  </metadata>
  <defs
     id="defs13" />
  <sodipodi:namedview
     pagecolor="#ffffff"
     bordercolor="#666666"
     borderopacity="1"
     objecttolerance="10"
     gridtolerance="10"
     guidetolerance="10"
     inkscape:pageopacity="0"
     inkscape:pageshadow="2"
     inkscape:window-width="1366"
     inkscape:window-height="703"
     id="namedview11"
     showgrid="false"
     inkscape:zoom="0.4609375"
     inkscape:cx="249.49153"
     inkscape:cy="189.42969"
     inkscape:window-x="0"
     inkscape:window-y="0"
     inkscape:window-maximized="1"
     inkscape:current-layer="Capa_1" />
  <path
     inkscape:connector-curvature="0"
     style="fill:#ffffff;fill-opacity:1"
     id="path2"
     d="m 360.04403,159.31628 c -8.904,-7.5 -20.211,-11.084 -31.794,-10.087 -11.6,0.994 -22.116,6.446 -29.612,15.351 l -65.123,77.336 -31.43,-32.686 c -16.654,-17.323 -44.299,-17.865 -61.62,-1.209 -8.392,8.067 -13.138,18.92 -13.366,30.559 -0.229,11.639 4.09,22.67 12.158,31.061 l 64.989,67.591 c 8.172,8.5 19.621,13.375 31.413,13.375 0.475,0 0.95,-0.009 1.437,-0.024 12.331,-0.406 23.958,-6.051 31.9,-15.485 l 96.312,-114.375 c 7.499,-8.903 11.081,-20.194 10.087,-31.793 -0.996,-11.599 -6.447,-22.117 -15.351,-29.614 z m -80.90242,132.4812 c -187.540736,125.56325 -93.77037,62.78163 0,0 z"
     sodipodi:nodetypes="cccccccccsccccccc" />
  <path
     inkscape:connector-curvature="0"
     style="fill:#ffffff"
     id="path6"
     d="m 498.337,284.55326 c 6.404,-9.955 13.663,-21.239 13.663,-34.377 0,-13.138 -7.259,-24.422 -13.663,-34.377 -4.287,-6.665 -8.336,-12.96 -9.635,-18.665 -1.386,-6.088 -0.459,-13.74 0.521,-21.842 1.468,-12.119 2.985,-24.65 -2.533,-36.071 -5.614,-11.621 -16.971,-18.584 -26.99,-24.728 -6.866,-4.21 -13.351,-8.186 -17.123,-12.903 -3.812,-4.766996 -6.273,-11.996996 -8.88,-19.651996 -3.771,-11.079 -8.046,-23.636002 -18.077,-31.634002 -9.979,-7.956 -23.151,-9.337 -34.773,-10.554 -8.088,-0.848 -15.728,-1.648 -21.29,-4.327 -5.372,-2.588 -10.659,-7.976 -16.257,-13.679 -8.265,-8.423 -17.633,-17.9690001 -30.34,-20.85300007 -12.236,-2.77700003 -24.047,1.46299997 -35.472,5.56299997 -7.77,2.788 -15.107,5.4220001 -21.488,5.4220001 -6.381,0 -13.719,-2.6340001 -21.488,-5.4220001 -11.426,-4.101 -23.239,-8.342 -35.473,-5.56299997 -12.706,2.88499997 -22.074,12.43100007 -30.34,20.85300007 -5.597,5.703 -10.883,11.091 -16.255,13.679 -5.563,2.679 -13.202,3.479 -21.291,4.327 -11.622,1.217 -24.795,2.597 -34.773,10.553 -10.030001,7.997 -14.305001,20.554002 -18.076,31.632002 -2.605999,7.656 -5.067999,14.887 -8.881,19.653996 -3.772,4.718 -10.257999,8.694 -17.123001,12.904 -10.019999,6.144 -21.376,13.106 -26.99,24.728 -5.518,11.42 -4,23.951 -2.533,36.069 0.981,8.102 1.908,15.755 0.521,21.843 -1.299,5.706 -5.348,12.001 -9.634999,18.666 -6.404,9.956 -13.663,21.24 -13.663,34.377 0,13.138 7.259,24.422 13.663001,34.377 4.286998,6.665 8.335999,12.96 9.634999,18.665 1.385999,6.088 0.458999,13.74 -0.521,21.842 -1.468,12.119 -2.985,24.65 2.533,36.071 5.614,11.621 16.971001,18.584 26.989999,24.728 6.866,4.21 13.351001,8.186 17.123001,12.903 3.812,4.767 6.273,11.997 8.88,19.652 3.771,11.079 8.045999,23.636 18.077,31.634 9.979,7.956 23.151,9.337 34.773,10.554 8.088,0.848 15.728,1.648 21.29,4.327 5.372,2.588 10.659,7.976 16.257,13.679 8.265,8.423 17.633,17.969 30.34,20.853 12.236,2.777 24.048,-1.462 35.472,-5.563 7.77,-2.788 15.107,-5.422 21.488,-5.422 6.381,0 13.719,2.634 21.488,5.422 8.874,3.185 17.98,6.453 27.338,6.453 2.69,0 5.402,-0.271 8.135,-0.891 12.706,-2.885 22.074,-12.431 30.34,-20.853 5.597,-5.703 10.883,-11.091 16.255,-13.679 5.563,-2.679 13.202,-3.479 21.291,-4.327 11.622,-1.217 24.795,-2.597 34.773,-10.553 10.03,-7.997 14.305,-20.554 18.076,-31.632 2.606,-7.656 5.068,-14.887 8.881,-19.654 3.772,-4.718 10.258,-8.694 17.123,-12.904 10.02,-6.144 21.376,-13.106 26.99,-24.728 5.518,-11.42 4,-23.951 2.533,-36.069 -0.981,-8.102 -1.908,-15.755 -0.521,-21.843 1.299,-5.705 5.348,-12 9.635,-18.665 z m -16.82,-10.819 c -5.033,7.823 -10.237,15.914 -12.316,25.046 -2.157,9.479 -0.976,19.243 0.168,28.687 1.173,9.682 2.279,18.827 -0.686,24.965 -3.063,6.338 -11.016,11.215 -19.437,16.378 -8.029,4.923 -16.333,10.015 -22.289,17.463 -5.998,7.5 -9.147,16.753 -12.193,25.7 -3.168,9.304 -6.159,18.092 -11.611,22.439 -5.408,4.312 -14.628,5.277 -24.39,6.3 -9.434,0.988 -19.189,2.01 -27.887,6.2 -8.52,4.104 -15.297,11.01 -21.851,17.688 -6.95,7.084 -13.517,13.774 -20.491,15.357 -6.549,1.489 -15.164,-1.607 -24.29,-4.883 -9.038,-3.243 -18.384,-6.598 -28.244,-6.598 -9.86,0 -19.206,3.354 -28.244,6.598 -9.126,3.274 -17.741,6.371 -24.289,4.883 -6.976,-1.583 -13.541,-8.273 -20.492,-15.356 -6.555,-6.679 -13.331,-13.585 -21.852,-17.688 -8.697,-4.19 -18.452,-5.212 -27.886,-6.2 -9.762,-1.022 -18.981,-1.988 -24.389,-6.301 -5.454,-4.348 -8.446,-13.137 -11.612999,-22.441 -3.046001,-8.946 -6.195001,-18.198 -12.192,-25.697 -5.957,-7.449 -14.26,-12.54 -22.289,-17.464 -8.42,-5.162 -16.374,-10.039 -19.437,-16.378 -2.966,-6.139 -1.858,-15.284 -0.687,-24.966 1.144,-9.442 2.326,-19.206 0.169,-28.685 -2.079001,-9.132 -7.283001,-17.223 -12.316,-25.046 C 25.092,265.35326 20,257.43726 20,250.17626 c 0,-7.261 5.092,-15.177 10.483001,-23.558 5.032999,-7.823 10.236999,-15.914 12.315999,-25.046 2.157001,-9.479 0.976,-19.243 -0.168,-28.687 -1.173,-9.682 -2.278999,-18.827 0.686,-24.965 3.063001,-6.338 11.016,-11.215 19.437001,-16.378 8.029,-4.923 16.333,-10.015 22.289,-17.463 5.998,-7.5 9.147,-16.752996 12.193,-25.699996 3.167999,-9.304 6.158999,-18.092 11.610999,-22.439002 5.408,-4.312 14.628,-5.277 24.39,-6.3 9.434,-0.988 19.189,-2.01 27.887,-6.2 8.52,-4.104 15.297,-11.01 21.851,-17.688 6.95,-7.084 13.517,-13.774 20.491,-15.357 6.549,-1.485 15.165,1.608 24.29,4.883 9.038,3.243 18.384,6.598 28.244,6.598 9.86,0 19.206,-3.354 28.244,-6.598 9.126,-3.274 17.741,-6.372 24.289,-4.883 6.976,1.583 13.541,8.273 20.492,15.356 6.555,6.679 13.331,13.585 21.852,17.688 8.697,4.19 18.452,5.212 27.886,6.2 9.762,1.022 18.981,1.988 24.389,6.301 5.454,4.348002 8.446,13.137002 11.613,22.441002 3.046,8.946 6.195,18.197996 12.192,25.696996 5.957,7.449 14.26,12.54 22.289,17.464 8.42,5.162 16.374,10.039 19.437,16.378 2.966,6.139 1.858,15.284 0.687,24.966 -1.144,9.442 -2.326,19.206 -0.169,28.685 2.079,9.132 7.283,17.223 12.316,25.046 5.391,8.383 10.483,16.299 10.483,23.559 0,7.261 -5.092,15.177 -10.483,23.558 z" />
</svg>
